<?xml version="1.0" standalone="no"?>
<!DOCTYPE svg PUBLIC "-//W3C//DTD SVG 20010904//EN"
 "http://www.w3.org/TR/2001/REC-SVG-20010904/DTD/svg10.dtd">
<svg version="1.0" xmlns="http://www.w3.org/2000/svg"
 width="1536.000000pt" height="1024.000000pt" viewBox="0 0 1536.000000 1024.000000"
 preserveAspectRatio="xMidYMid meet">

<g transform="translate(0.000000,1024.000000) scale(0.100000,-0.100000)"
fill="#15784d" stroke="none">
<path d="M6227 7749 c-8 -13 -120 -211 -250 -439 -129 -228 -267 -471 -307
-540 -93 -161 -460 -800 -850 -1480 -169 -294 -473 -823 -675 -1175 -202 -352
-454 -793 -560 -980 -106 -187 -293 -518 -417 -735 -285 -500 -428 -756 -428
-764 0 -3 1031 -6 2290 -6 1260 0 2290 2 2290 4 0 5 -225 391 -494 849 l-228
387 -884 0 c-486 -1 -884 2 -885 5 0 3 75 148 167 323 386 733 983 1860 1074
2027 53 99 118 220 145 269 39 73 49 86 60 75 7 -8 122 -201 255 -429 222
-379 724 -1226 1320 -2225 334 -560 558 -936 668 -1122 l96 -163 653 0 c359 0
653 2 653 4 0 3 -142 233 -503 816 -373 602 -566 917 -717 1165 -394 652 -576
955 -685 1140 -65 110 -173 292 -240 405 -67 113 -178 300 -245 415 -68 116
-194 329 -280 475 -87 146 -237 402 -335 570 -98 168 -235 402 -305 520 -168
285 -308 524 -341 584 l-27 49 -15 -24z"/>
<path d="M9025 7664 c-358 -26 -636 -83 -940 -191 -124 -44 -360 -146 -379
-163 -4 -5 5 -28 21 -52 16 -23 61 -97 100 -163 39 -66 122 -208 185 -315 63
-107 149 -254 192 -327 42 -72 83 -136 89 -142 9 -7 42 4 117 39 344 160 698
219 1081 179 656 -66 1264 -488 1567 -1086 l57 -113 593 0 c385 0 592 3 592
10 0 5 -25 74 -56 152 -212 538 -530 1016 -891 1340 -230 206 -456 362 -707
490 -354 179 -674 279 -1035 324 -112 14 -487 25 -586 18z"/>
<path d="M9302 4508 c8 -13 128 -213 267 -445 l253 -423 723 -2 723 -3 -60
-120 c-107 -216 -238 -394 -419 -572 -103 -101 -284 -250 -340 -279 -16 -8
-29 -18 -29 -22 1 -5 453 -756 549 -911 7 -11 36 5 137 74 308 210 557 445
757 712 283 378 464 781 556 1243 45 221 55 326 56 555 l0 210 -1594 3 -1593
2 14 -22z"/>
</g>
</svg>
