<svg width="40" height="40" viewBox="0 0 40 40" fill="none" xmlns="http://www.w3.org/2000/svg">
<g clip-path="url(#clip0_3956_64641)">
<rect width="40" height="40" rx="8" fill="url(#paint0_linear_3956_64641)"/>
<rect width="40" height="40" rx="8" fill="url(#paint1_linear_3956_64641)"/>
<path d="M12.91 4.79549C12.8718 4.71283 12.9066 4.61469 12.9888 4.57556C15.4094 3.42389 18.0686 2.89908 20.7337 3.04827C23.4532 3.2005 26.0923 4.04964 28.4104 5.51829C30.7286 6.98695 32.6522 9.02839 34.0058 11.4565C35.3593 13.8847 36.0999 16.6223 36.1599 19.4198C36.2199 22.2174 35.5975 24.9859 34.3494 27.473C33.1012 29.96 31.2671 32.0866 29.0141 33.6587C26.7611 35.2309 24.161 36.1987 21.4507 36.4739C18.7948 36.7436 16.1159 36.3397 13.6485 35.299C13.5644 35.2635 13.5251 35.1667 13.5599 35.0823C13.5955 34.9956 13.6954 34.9551 13.7819 34.9914C16.1972 36.0085 18.8191 36.403 21.4186 36.1391C24.0745 35.8694 26.6224 34.921 28.8302 33.3805C31.0378 31.8398 32.8352 29.7559 34.0583 27.3188C35.2814 24.8816 35.8913 22.1686 35.8325 19.4273C35.7737 16.6859 35.0481 14.0032 33.7216 11.6237C32.3952 9.24434 30.5102 7.24386 28.2386 5.80468C25.9668 4.36551 23.3807 3.5334 20.7158 3.38423C18.1076 3.23822 15.5052 3.75097 13.1358 4.87643C13.0511 4.91669 12.9494 4.88064 12.91 4.79549Z" fill="white"/>
<path d="M8.55918 8.07017C8.47494 7.98501 8.47486 7.84782 8.56018 7.76376C10.3714 5.97974 12.5629 4.63731 14.9677 3.84029C17.4406 3.02068 20.0696 2.80085 22.6421 3.19855C25.2146 3.59625 27.6584 4.60034 29.776 6.12961C31.8936 7.65888 33.6255 9.6704 34.8316 12.0016C36.0376 14.3328 36.6842 16.9181 36.7187 19.5486C36.7534 22.1791 36.1752 24.781 35.0309 27.1437C33.8866 29.5066 32.2083 31.5639 30.1318 33.1497C28.1139 34.6906 25.7749 35.744 23.2942 36.2306C23.1748 36.254 23.0601 36.1743 23.0388 36.0546C23.0176 35.9354 23.0967 35.8217 23.2154 35.7984C25.6295 35.3242 27.9058 34.2987 29.8697 32.799C31.8918 31.2549 33.5262 29.2514 34.6404 26.9506C35.7547 24.6497 36.3178 22.116 36.284 19.5545C36.2504 16.9929 35.6208 14.4753 34.4463 12.2053C33.2718 9.93517 31.5854 7.97638 29.5233 6.48718C27.4613 4.998 25.0815 4.02024 22.5764 3.63296C20.0713 3.24568 17.5112 3.45975 15.1031 4.25787C12.7647 5.03292 10.6332 6.33759 8.87097 8.07122C8.78427 8.15651 8.64471 8.15662 8.55918 8.07017Z" fill="white"/>
<path d="M11.7775 5.62488C11.773 5.61674 11.776 5.60649 11.7842 5.60205C13.8755 4.46453 16.1856 3.78123 18.5621 3.59736C20.9442 3.41304 23.3384 3.73472 25.586 4.54106C27.8336 5.3474 29.8831 6.61995 31.5987 8.27432C33.3143 9.92865 34.6567 11.9271 35.5368 14.1369C36.417 16.3466 36.8147 18.7173 36.7036 21.0917C36.5927 23.466 35.9754 25.7897 34.893 27.9088C33.8105 30.0277 32.2875 31.8935 30.4249 33.3823C28.5667 34.8676 26.4131 35.944 24.1061 36.5401C24.0971 36.5424 24.088 36.537 24.0857 36.5281C24.0833 36.5191 24.0887 36.51 24.0977 36.5075C26.4001 35.9126 28.5494 34.8385 30.4038 33.3562C32.2626 31.8703 33.7826 30.0083 34.8629 27.8935C35.9432 25.7788 36.5592 23.4597 36.67 21.0901C36.7808 18.7205 36.3839 16.3545 35.5054 14.1492C34.6271 11.9438 33.2874 9.9495 31.5753 8.29839C29.8632 6.64733 27.8177 5.37733 25.5746 4.5726C23.3315 3.76789 20.942 3.44684 18.5647 3.63078C16.193 3.8143 13.8875 4.49625 11.8002 5.63153C11.7921 5.63594 11.7819 5.63298 11.7775 5.62488Z" fill="white"/>
<path d="M11.4286 5.60664C11.3979 5.55439 11.4175 5.48701 11.4716 5.45979C15.2201 3.57534 19.5891 3.06002 23.7253 4.017C27.8982 4.98246 31.5287 7.37581 33.8948 10.7213C36.261 14.0668 37.1897 18.1195 36.4965 22.074C35.8088 25.997 33.5745 29.5384 30.2333 32.0058C30.1883 32.0391 30.1252 32.0315 30.0892 31.9887C30.0496 31.9415 30.0584 31.8706 30.1079 31.8339C33.3986 29.399 35.599 25.9076 36.2769 22.0406C36.9611 18.1375 36.0445 14.1375 33.7091 10.8354C31.3736 7.5334 27.7905 5.17116 23.6717 4.21824C19.5856 3.27287 15.2693 3.78325 11.5674 5.64727C11.5177 5.67233 11.4569 5.65467 11.4286 5.60664Z" fill="white"/>
<path d="M4.67253 15.4967C4.59165 15.4761 4.54246 15.3937 4.56343 15.3129C5.31716 12.4094 6.84042 9.76773 8.97028 7.67332C11.1359 5.54372 13.8437 4.06345 16.7921 3.39731C19.7407 2.73116 22.8143 2.90526 25.6706 3.90024C28.527 4.89521 31.0543 6.67202 32.971 9.03286C34.8877 11.3937 36.1187 14.2459 36.5268 17.272C36.935 20.2981 36.5044 23.3794 35.2829 26.1728C34.0614 28.9662 32.0971 31.3621 29.6084 33.0939C27.1624 34.7959 24.3043 35.7906 21.3421 35.9725C21.265 35.9773 21.2054 35.9056 21.2234 35.8303C21.2354 35.7806 21.2784 35.7449 21.3294 35.7419C24.2589 35.573 27.0181 34.5254 29.437 32.8422C31.8796 31.1425 33.8076 28.791 35.0065 26.0493C36.2053 23.3077 36.628 20.2834 36.2274 17.3133C35.8268 14.3433 34.6186 11.5438 32.7374 9.22667C30.8562 6.90954 28.3757 5.16564 25.5722 4.18907C22.7686 3.21252 19.7521 3.04164 16.8581 3.69546C13.9642 4.34927 11.3065 5.80214 9.18102 7.8923C7.0913 9.94729 5.59655 12.539 4.85651 15.3876C4.83551 15.4684 4.75349 15.5175 4.67253 15.4967Z" fill="white"/>
<path d="M6.3834 10.6782C6.31294 10.6316 6.29312 10.5369 6.33965 10.4664C8.02893 7.90701 10.383 5.86598 13.1448 4.5682C15.9524 3.24889 19.0693 2.75037 22.1427 3.12902C25.216 3.50768 28.1231 4.74839 30.5351 6.71076C32.947 8.67314 34.7674 11.2788 35.7903 14.2328C36.8131 17.187 36.9976 20.3714 36.3227 23.426C35.648 26.4806 34.1408 29.2831 31.9719 31.5167C29.9422 33.6067 27.4089 35.1204 24.6264 35.9115C24.2525 36.0177 23.8803 36.1925 23.4996 36.2715C22.0712 36.568 18.2657 36.5884 14.9991 35.6088C14.8861 35.5749 14.9029 35.416 15.0203 35.4038C15.0358 35.4022 15.0515 35.4039 15.0664 35.4089C17.9462 36.3629 21.0326 36.4855 23.9778 35.7624C26.9308 35.0374 29.624 33.4913 31.7528 31.2992C33.8815 29.107 35.3607 26.3563 36.023 23.3583C36.6854 20.3603 36.5043 17.2348 35.5004 14.3354C34.4966 11.4361 32.7099 8.87862 30.3426 6.95258C27.9753 5.02653 25.122 3.80878 22.1055 3.43714C19.0891 3.0655 16.0299 3.5548 13.2743 4.84968C10.5653 6.1226 8.25609 8.12406 6.59832 10.6337C6.5511 10.7052 6.45486 10.7255 6.3834 10.6782Z" fill="white"/>
<path d="M7.70214 9.36673C7.66969 9.34014 7.66434 9.29249 7.69021 9.25946C9.38184 7.10001 11.5685 5.40488 14.0547 4.32629C16.5637 3.23782 19.2979 2.81186 22.0081 3.08726C24.7183 3.36266 27.3184 4.33065 29.5713 5.90299C31.8241 7.47533 33.6581 9.60199 34.9061 12.0892C36.154 14.5763 36.7763 17.3449 36.7161 20.1424C36.6559 22.94 35.9151 25.6775 34.5614 28.1056C33.2076 30.5336 31.2839 32.575 28.9656 34.0434C26.6697 35.4976 24.0591 36.3443 21.3675 36.5083C21.324 36.5109 21.2868 36.4775 21.2845 36.434C21.2822 36.3907 21.3154 36.3537 21.3588 36.3511C24.025 36.1887 26.6109 35.35 28.8852 33.9094C31.1817 32.4547 33.0874 30.4326 34.4284 28.0273C35.7694 25.6221 36.5032 22.9103 36.5628 20.139C36.6226 17.3677 36.0061 14.6252 34.7699 12.1613C33.5336 9.69752 31.7168 7.59079 29.4852 6.03322C27.2535 4.47564 24.6778 3.51674 21.9931 3.24393C19.3082 2.97112 16.5997 3.39307 14.1143 4.47132C11.6528 5.53916 9.48787 7.21703 7.81254 9.3544C7.78567 9.38867 7.73584 9.39434 7.70214 9.36673Z" fill="white"/>
<path d="M3.91212 23.1479C3.8643 23.1567 3.83253 23.2025 3.8413 23.2503C4.36883 26.1237 5.5968 28.8188 7.41404 31.0917C7.44483 31.1302 7.50119 31.1358 7.5392 31.1045C7.57665 31.0736 7.5822 31.0182 7.55186 30.9803C5.75305 28.7307 4.53744 26.0633 4.01506 23.2192C4.00623 23.1712 3.9602 23.1392 3.91212 23.1479Z" fill="white"/>
<path d="M7.99429 31.6477C7.95812 31.6801 7.95478 31.7356 7.98701 31.772C8.80041 32.6896 9.70701 33.5182 10.6919 34.2442C10.7316 34.2736 10.7877 34.2645 10.8164 34.2243C10.8446 34.1846 10.8358 34.1296 10.7966 34.1006C9.82216 33.3825 8.92514 32.5628 8.12026 31.655C8.08754 31.6182 8.03102 31.6147 7.99429 31.6477Z" fill="white"/>
<path d="M9.35365 7.57071C9.33625 7.55195 9.30658 7.55194 9.28924 7.57075C7.16742 9.87169 5.68819 12.7695 5.02045 15.9335C5.01571 15.956 5.02971 15.9781 5.05201 15.9835C5.07536 15.9892 5.09877 15.9744 5.10374 15.9509C5.76869 12.8026 7.24141 9.91936 9.35368 7.63052C9.36928 7.61362 9.36929 7.58756 9.35365 7.57071Z" fill="white"/>
<path d="M7.18159 29.6226C7.10019 29.6471 7.0641 29.742 7.11001 29.8135C7.91526 31.0677 9.0409 32.2101 10.4325 33.185C10.4711 33.212 10.5226 33.2119 10.5612 33.1849C10.6254 33.1399 10.6252 33.0447 10.5612 32.9993C9.20462 32.0372 8.10945 30.912 7.3289 29.6781C7.29768 29.6287 7.23754 29.6059 7.18159 29.6226Z" fill="white"/>
<path d="M17.543 35.6315C17.5312 35.6931 17.5726 35.7521 17.6345 35.7618C17.9324 35.8083 18.2315 35.8479 18.5316 35.8807C18.5918 35.8872 18.6458 35.844 18.6531 35.784C18.6607 35.7223 18.6162 35.6665 18.5544 35.6598C18.2586 35.6274 17.9637 35.5883 17.67 35.5424C17.6106 35.5331 17.5543 35.5725 17.543 35.6315Z" fill="white"/>
<path d="M19.629 35.89C19.6273 35.946 19.6714 35.9928 19.7275 35.9939C20.0363 36.0003 20.3453 35.9994 20.6541 35.9913C20.7101 35.9899 20.7541 35.9428 20.752 35.8867C20.75 35.8312 20.7034 35.7877 20.6477 35.7891C20.3428 35.7971 20.0377 35.798 19.7327 35.7917C19.677 35.7905 19.6307 35.8344 19.629 35.89Z" fill="white"/>
<path d="M9.05956 31.0533C9.04425 31.076 9.0454 31.1061 9.0625 31.1276C9.21828 31.3231 9.37778 31.5128 9.54084 31.6969C9.56963 31.7294 9.62165 31.7243 9.6438 31.6869C9.65813 31.6627 9.65511 31.632 9.6364 31.6111C9.47454 31.4295 9.31619 31.2421 9.16153 31.0492C9.13482 31.0158 9.08339 31.0179 9.05956 31.0533Z" fill="white"/>
<path d="M13.3946 34.551C13.3865 34.5843 13.4032 34.6188 13.4345 34.6329C13.6272 34.7197 13.8214 34.7998 14.0171 34.8731C14.0588 34.8888 14.1046 34.8629 14.1131 34.8191C14.1199 34.7841 14.1002 34.7492 14.0668 34.7368C13.8745 34.6653 13.6836 34.5871 13.4942 34.5024C13.4531 34.4841 13.4052 34.5072 13.3946 34.551Z" fill="white"/>
<path d="M10.9467 33.7023C10.9173 33.7415 10.927 33.7973 10.9679 33.8241C12.5776 34.881 14.3791 35.6505 16.283 36.0946C16.3272 36.105 16.3716 36.0778 16.383 36.0337C16.3947 35.988 16.3663 35.9415 16.3203 35.9308C14.4367 35.4907 12.6545 34.7285 11.0624 33.6821C11.0244 33.6572 10.9738 33.666 10.9467 33.7023Z" fill="white"/>
<path d="M20.3589 10.6281L18.5988 21.7405L19.6409 21.7414L19.1736 25.0978H27.6249L26.9304 29.0092H13.7366L14.301 25.5218L14.8644 21.7603L13.7148 21.749L15.8058 10.5801L20.3589 10.6281Z" fill="white"/>
</g>
<defs>
<linearGradient id="paint0_linear_3956_64641" x1="20" y1="0" x2="20" y2="40" gradientUnits="userSpaceOnUse">
<stop stop-color="#011A4D"/>
<stop offset="1" stop-color="#003399"/>
</linearGradient>
<linearGradient id="paint1_linear_3956_64641" x1="19.67" y1="0" x2="19.67" y2="40.6865" gradientUnits="userSpaceOnUse">
<stop stop-color="#9D61FF"/>
<stop offset="1" stop-color="#45009D"/>
</linearGradient>
<clipPath id="clip0_3956_64641">
<rect width="40" height="40" rx="8" fill="white"/>
</clipPath>
</defs>
</svg>
